<svg id="Layer_1" data-name="Layer 1" xmlns="http://www.w3.org/2000/svg" viewBox="0 0 760 684"><defs><style>.cls-1{fill:#f05a22;}.cls-2{fill:none;}</style></defs><title>23-kk-logo-verticlal</title><path class="cls-1" d="M315.32,134.18V247.53a4.3,4.3,0,0,1-3.49,4.23c-14.46,2.75-68.88,10-68.88-35.92V134.7c0-44.61,72.37-45.61,72.37-.52"/><path class="cls-1" d="M414.33,212.32V325.68a4.29,4.29,0,0,1-3.49,4.22C396.39,332.65,342,340,342,294V212.84c0-44.6,72.37-45.6,72.37-.52"/><path class="cls-1" d="M513.34,280.92V394.27a4.3,4.3,0,0,1-3.49,4.23c-14.45,2.75-68.87,10-68.87-35.92V281.44c0-44.61,72.36-45.61,72.36-.52"/><path d="M143.45,533.88l39.19,50.31H155.13l-32.77-44v44H99.27V484.43h23.09v44.32l32.92-44.32h27.36Z"/><path d="M181.78,549.84c0-21,14.53-36.2,38.19-36.2S258,528.89,258,549.84,243.49,586,220,586,181.78,570.79,181.78,549.84Zm54.58,0c0-10.4-6.13-17.82-16.39-17.82s-16.39,7.42-16.39,17.82,6,17.82,16.39,17.82S236.36,560.24,236.36,549.84Z"/><path d="M270.56,515.49h21.8v10c4-7.7,11.83-11.83,22.23-11.83,16.68,0,25.09,9.41,25.09,28.08v42.47H317.73V548.84c0-11.54-3.28-16.82-12.11-16.82s-13.26,5.71-13.26,16.25v35.92h-21.8Z"/><path d="M399.38,566.8v17.39a85,85,0,0,1-14.53,1.14c-10.26,0-24.37-2.28-24.37-25.23V532.74H349.64V515.49h10.84V495.11h21.8v20.38h15.54v17.25H382.28v22.8c0,10.12,4.13,11.69,9.55,11.69A60.67,60.67,0,0,0,399.38,566.8Z"/><path d="M478.9,555.83H428.17c.42,9,6.41,13.82,16.1,13.82,6.7,0,11-1.85,12.83-6.13h21.37c-2.13,13.54-16,22.52-34.2,22.52-23.37,0-37.77-13.26-37.77-36.2,0-22.52,14.68-36.2,37.06-36.2,21.38,0,35.91,13.26,35.91,32.64A74.09,74.09,0,0,1,478.9,555.83ZM458,542.29c-.14-9.12-5.27-14-14.53-14-9.41,0-15.11,5.56-15.25,14Z"/><path d="M492,515.49h21.8v10c4-7.7,11.83-11.83,22.23-11.83,16.68,0,25.09,9.41,25.09,28.08v42.47h-22V548.84c0-11.54-3.28-16.82-12.12-16.82-8.69,0-13.25,5.71-13.25,16.25v35.92H492Z"/><path d="M620.83,566.8v17.39a85,85,0,0,1-14.53,1.14c-10.26,0-24.37-2.28-24.37-25.23V532.74H571.09V515.49h10.84V495.11h21.8v20.38h15.54v17.25H603.73v22.8c0,10.12,4.13,11.69,9.55,11.69A60.67,60.67,0,0,0,620.83,566.8Z"/><path class="cls-1" d="M632.51,571.65a14.11,14.11,0,1,1,14.11,14A13.93,13.93,0,0,1,632.51,571.65Z"/><rect class="cls-2" width="760" height="684"/></svg>